# xmcd
#
# Track frame offsets: 
#        150
#        25193
#        53529
#        67139
#        80675
#        105672
#        124128
#        141411
#        158545
#        184981
#        204976
#        222506
#        251107
#        263395
#        291922
#
# Disc length: 4038 seconds
#
# Revision: 1
# Processed by: cddbd v1.5.2PL0 Copyright (c) Steve Scherf et al.
# Submitted via: ExactAudioCopy v0.99pb5
#
DISCID=e00fc40f
DTITLE=Van Walker - The Celestial Railroad (... and Other Stories)
DYEAR=2008
DGENRE=R&B
TTITLE0=Milk and Honey
TTITLE1=The Celestial Railroad
TTITLE2=All The Leaves Are Shaking
TTITLE3=Singing Detective
TTITLE4=The Murder Of The Mallee Girl
TTITLE5=World Of Sin
TTITLE6=Big Sleep
TTITLE7=If Lovin You Aint Crazy I Am
TTITLE8=The Low Road
TTITLE9=Wildgrass
TTITLE10=Beware Of Bandits
TTITLE11=Last Buses
TTITLE12=High Street Bridge
TTITLE13=Waiting
TTITLE14=V.F.A. (Vagrants Forced Attrition)
EXTD=
EXTT0=
EXTT1=
EXTT2=
EXTT3=
EXTT4=
EXTT5=
EXTT6=
EXTT7=
EXTT8=
EXTT9=
EXTT10=
EXTT11=
EXTT12=
EXTT13=
EXTT14=
PLAYORDER=
